<?xml version="1.0" standalone="no"?> <!DOCTYPE svg PUBLIC "-//W3C//DTD SVG 1.0//EN" "http://www.w3.org/TR/2001/REC-SVG-20010904/DTD/svg10.dtd" > <svg xmlns="http://www.w3.org/2000/svg" width="100%" height="100%">
<defs >
<font horiz-adv-x="377" ><font-face
    font-family="SF Movie Poster"
    units-per-em="1150"
    panose-1="0 0 7 0 0 0 0 0 0 0"
    ascent="950"
    descent="-200"
    alphabetic="0" />
<missing-glyph horiz-adv-x="575" d="M72 0V950H503V0H72ZM144 72H431V878H144V72Z" />
<glyph unicode=" " glyph-name="space" horiz-adv-x="200" />
<glyph unicode="!" glyph-name="exclam" horiz-adv-x="240" d="M170 120H70V910H170V120ZM170 40Q170 19 156 5T120 -10Q99 -10 85 4T70 40Q70 61 84 75T120 90Q141 90 155 76T170 40Z" />
<glyph unicode="&quot;" glyph-name="quotedbl" horiz-adv-x="340" d="M270 860Q270 835 253 796Q233 750 210 750V811Q170 819 170 860Q170 881 184 895T220 910Q241 910 255 896T270 860ZM170 860Q170 835 153 796Q133 750 110 750V811Q70 819 70 860Q70 881
84 895T120 910Q141 910 155 896T170 860Z" />
<glyph unicode="#" glyph-name="numbersign" horiz-adv-x="581" d="M512 730L503 630H423L418 570H498L489 470H409L402 390H302L309 470H249L242 390H142L149 470H69L78 570H158L163 630H83L92 730H172L179 810H279L272 730H332L339 810H439L432 730H512ZM323
630H263L258 570H318L323 630Z" />
<glyph unicode="$" glyph-name="dollar" horiz-adv-x="440" d="M370 240Q370 192 342 153T270 99V-10H170V99Q126 114 98 153T70 240V310H170V240Q170 219 184 205T220 190Q241 190 255 204T270 240V300Q270 363 218 394Q170 422 122 449Q70 493 70 590V660Q70
708 98 747T170 801V910H270V801Q314 786 342 747T370 660V590H270V660Q270 681 256 695T220 710Q199 710 185 696T170 660V600Q170 537 222 505Q270 478 318 451Q370 407 370 310V240Z" />
<glyph unicode="%" glyph-name="percent" horiz-adv-x="823" d="M370 640Q370 578 326 534T220 490Q158 490 114 534T70 640V760Q70 822 114 866T220 910Q282 910 326 866T370 760V640ZM541 894L381 -12L282 6L442 912L541 894ZM753 140Q753 78 709 34T603 -10Q541
-10 497 34T453 140V260Q453 322 497 366T603 410Q665 410 709 366T753 260V140ZM270 640V760Q270 781 256 795T220 810Q199 810 185 796T170 760V640Q170 619 184 605T220 590Q241 590 255 604T270 640ZM653 140V260Q653 281 639 295T603 310Q582 310 568 296T553
260V140Q553 119 567 105T603 90Q624 90 638 104T653 140Z" />
<glyph unicode="&amp;" glyph-name="ampersand" horiz-adv-x="440" d="M370 240Q370 192 342 153T270 99V-10H170V99Q126 114 98 153T70 240V350Q70 407 108 450Q70 493 70 550V660Q70 708 98 747T170 801V910H270V801Q314 786 342 747T370 660V590H270V660Q270
681 256 695T220 710Q199 710 185 696T170 660V550Q170 529 184 515T220 500H280V400H220Q199 400 185 386T170 350V240Q170 219 184 205T220 190Q241 190 255 204T270 240V310H370V240Z" />
<glyph unicode="&apos;" glyph-name="quotesingle" horiz-adv-x="240" d="M170 860Q170 835 153 796Q133 750 110 750V811Q70 819 70 860Q70 881 84 895T120 910Q141 910 155 896T170 860Z" />
<glyph unicode="(" glyph-name="parenleft" horiz-adv-x="340" d="M276 -10H215Q134 108 102 209T70 450Q70 590 102 691T215 910H276Q214 780 192 681Q170 586 170 450Q170 315 192 219Q214 120 276 -10Z" />
<glyph unicode=")" glyph-name="parenright" horiz-adv-x="340" d="M270 450Q270 310 238 209T125 -10H64Q126 120 148 219Q170 315 170 450Q170 586 148 681Q126 780 64 910H125Q206 792 238 691T270 450Z" />
<glyph unicode="*" glyph-name="asterisk" horiz-adv-x="434" d="M364 585Q364 569 352 557T323 545Q313 545 302 551L239 612L236 611L258 525Q258 508 247 496T218 483Q177 484 176 525L198 611L196 612L132 551Q122 545 111 545Q94 545 82 556T70 585Q70 609
92 621L177 646V647L92 672Q70 685 70 708Q70 724 82 736T111 749Q122 749 132 743L196 681L198 682L176 768Q176 785 188 797T216 810H217Q258 810 258 768L236 683L239 681L302 743Q313 749 324 749Q341 749 352 737T364 708Q364 684 343 672L258 648L259 647V646L343
621Q364 609 364 585Z" />
<glyph unicode="+" glyph-name="plus" horiz-adv-x="460" d="M390 400H280V290H180V400H70V500H180V610H280V500H390V400Z" />
<glyph unicode="," glyph-name="comma" horiz-adv-x="240" d="M170 40Q170 15 153 -24Q133 -70 110 -70V-9Q70 -1 70 40Q70 61 84 75T120 90Q141 90 155 76T170 40Z" />
<glyph unicode="-" glyph-name="hyphen" horiz-adv-x="460" d="M390 400H70V500H390V400Z" />
<glyph unicode="." glyph-name="period" horiz-adv-x="240" d="M170 40Q170 19 156 5T120 -10Q99 -10 85 4T70 40Q70 61 84 75T120 90Q141 90 155 76T170 40Z" />
<glyph unicode="/" glyph-name="slash" horiz-adv-x="235" d="M247 894L87 -12L-12 6L148 912L247 894Z" />
<glyph unicode="0" glyph-name="zero" horiz-adv-x="440" d="M370 140Q370 78 326 34T220 -10Q158 -10 114 34T70 140V760Q70 822 114 866T220 910Q282 910 326 866T370 760V140ZM270 140V760Q270 781 256 795T220 810Q199 810 185 796T170 760V140Q170 119 184
105T220 90Q241 90 255 104T270 140Z" />
<glyph unicode="1" glyph-name="one" horiz-adv-x="240" d="M170 -10H70V910H170V-10Z" />
<glyph unicode="2" glyph-name="two" horiz-adv-x="440" d="M370 -10H70V280Q70 361 103 413Q124 445 174 483Q228 522 246 550Q270 588 270 650V760Q270 781 256 795T220 810Q199 810 185 796T170 760V690H70V760Q70 822 114 866T220 910Q282 910 326 866T370
760V620Q370 539 337 487Q316 455 266 417Q212 378 194 350Q170 312 170 250V90H370V-10Z" />
<glyph unicode="3" glyph-name="three" horiz-adv-x="440" d="M370 140Q370 78 326 34T220 -10Q158 -10 114 34T70 140V210H170V140Q170 119 184 105T220 90Q241 90 255 104T270 140V350Q270 371 256 385T220 400H160V500H220Q241 500 255 514T270 550V760Q270
781 256 795T220 810Q199 810 185 796T170 760V690H70V760Q70 822 114 866T220 910Q282 910 326 866T370 760V550Q370 493 332 450Q370 407 370 350V140Z" />
<glyph unicode="4" glyph-name="four" horiz-adv-x="440" d="M370 -10H270V350H70V910H170V450H270V910H370V-10Z" />
<glyph unicode="5" glyph-name="five" horiz-adv-x="440" d="M370 140Q370 78 326 34T220 -10Q158 -10 114 34T70 140V210H170V140Q170 119 184 105T220 90Q241 90 255 104T270 140V400Q270 421 256 435T220 450Q170 450 170 390H70V910H370V810H170V541Q194 550
220 550Q282 550 326 506T370 400V140Z" />
<glyph unicode="6" glyph-name="six" horiz-adv-x="440" d="M370 140Q370 78 326 34T220 -10Q158 -10 114 34T70 140V760Q70 822 114 866T220 910Q282 910 326 866T370 760V690H270V760Q270 781 256 795T220 810Q199 810 185 796T170 760V541Q194 550 220 550Q282
550 326 506T370 400V140ZM270 140V400Q270 421 256 435T220 450Q199 450 185 436T170 400V140Q170 119 184 105T220 90Q241 90 255 104T270 140Z" />
<glyph unicode="7" glyph-name="seven" horiz-adv-x="400" d="M372 910L174 -10H68L246 810H70V910H372Z" />
<glyph unicode="8" glyph-name="eight" horiz-adv-x="440" d="M370 140Q370 78 326 34T220 -10Q158 -10 114 34T70 140V350Q70 407 108 450Q70 493 70 550V760Q70 822 114 866T220 910Q282 910 326 866T370 760V550Q370 493 332 450Q370 407 370 350V140ZM270
550V760Q270 781 256 795T220 810Q199 810 185 796T170 760V550Q170 529 184 515T220 500Q241 500 255 514T270 550ZM270 140V350Q270 371 256 385T220 400Q199 400 185 386T170 350V140Q170 119 184 105T220 90Q241 90 255 104T270 140Z" />
<glyph unicode="9" glyph-name="nine" horiz-adv-x="440" d="M370 140Q370 78 326 34T220 -10Q158 -10 114 34T70 140V210H170V140Q170 119 184 105T220 90Q241 90 255 104T270 140V359Q246 350 220 350Q158 350 114 394T70 500V760Q70 822 114 866T220 910Q282
910 326 866T370 760V140ZM270 500V760Q270 781 256 795T220 810Q199 810 185 796T170 760V500Q170 479 184 465T220 450Q241 450 255 464T270 500Z" />
<glyph unicode=":" glyph-name="colon" horiz-adv-x="240" d="M170 460Q170 439 156 425T120 410Q99 410 85 424T70 460Q70 481 84 495T120 510Q141 510 155 496T170 460ZM170 40Q170 19 156 5T120 -10Q99 -10 85 4T70 40Q70 61 84 75T120 90Q141 90 155 76T170 40Z" />
<glyph unicode=";" glyph-name="semicolon" horiz-adv-x="240" d="M170 460Q170 439 156 425T120 410Q99 410 85 424T70 460Q70 481 84 495T120 510Q141 510 155 496T170 460ZM170 40Q170 15 153 -24Q133 -70 110 -70V-9Q70 -1 70 40Q70 61 84 75T120 90Q141 90
155 76T170 40Z" />
<glyph unicode="=" glyph-name="equal" horiz-adv-x="460" d="M390 470H70V570H390V470ZM390 330H70V430H390V330Z" />
<glyph unicode="?" glyph-name="question" horiz-adv-x="440" d="M370 500Q370 438 326 394T220 350Q194 350 170 359V120H70V510H170Q170 450 220 450Q241 450 255 464T270 500V760Q270 781 256 795T220 810Q199 810 185 796T170 760V690H70V760Q70 822 114 866T220
910Q282 910 326 866T370 760V500ZM170 40Q170 19 156 5T120 -10Q99 -10 85 4T70 40Q70 61 84 75T120 90Q141 90 155 76T170 40Z" />
<glyph unicode="A" glyph-name="A" horiz-adv-x="379" d="M370 -10H268L233 230H146L111 -10H9L135 910H244L370 -10ZM219 330L190 529L161 330H219Z" />
<glyph unicode="B" glyph-name="B" horiz-adv-x="440" d="M370 140Q370 78 326 34T220 -10H70V910H210Q272 910 316 866T360 760V550Q360 497 326 456Q370 412 370 350V140ZM260 550V760Q260 781 246 795T210 810H170V500H210Q231 500 245 514T260 550ZM270 140V350Q270
371 256 385T220 400H170V90H220Q241 90 255 104T270 140Z" />
<glyph unicode="C" glyph-name="C" horiz-adv-x="440" d="M370 140Q370 78 326 34T220 -10Q158 -10 114 34T70 140V760Q70 822 114 866T220 910Q282 910 326 866T370 760V690H270V760Q270 781 256 795T220 810Q199 810 185 796T170 760V140Q170 119 184 105T220
90Q241 90 255 104T270 140V210H370V140Z" />
<glyph unicode="D" glyph-name="D" horiz-adv-x="440" d="M370 140Q370 78 326 34T220 -10H70V910H220Q282 910 326 866T370 760V140ZM270 140V760Q270 781 256 795T220 810H170V90H220Q241 90 255 104T270 140Z" />
<glyph unicode="E" glyph-name="E" horiz-adv-x="400" d="M330 -10H70V910H330V810H170V500H330V400H170V90H330V-10Z" />
<glyph unicode="F" glyph-name="F" horiz-adv-x="360" d="M330 400H170V-10H70V910H330V810H170V500H330V400Z" />
<glyph unicode="G" glyph-name="G" horiz-adv-x="440" d="M370 -10H270V-1Q246 -10 220 -10Q158 -10 114 34T70 140V760Q70 822 114 866T220 910Q282 910 326 866T370 760V690H270V760Q270 781 256 795T220 810Q199 810 185 796T170 760V140Q170 119 184 105T220
90Q241 90 255 104T270 140V370H210V470H370V-10Z" />
<glyph unicode="H" glyph-name="H" horiz-adv-x="440" d="M370 -10H270V400H170V-10H70V910H170V500H270V910H370V-10Z" />
<glyph unicode="I" glyph-name="I" horiz-adv-x="240" d="M170 -10H70V910H170V-10Z" />
<glyph unicode="J" glyph-name="J" horiz-adv-x="400" d="M330 140Q330 78 286 34T180 -10Q118 -10 74 34T30 140V190H130V140Q130 119 144 105T180 90Q201 90 215 104T230 140V910H330V140Z" />
<glyph unicode="K" glyph-name="K" horiz-adv-x="440" d="M374 -10H263L170 305V-10H70V910H170V595L263 910H374L230 450L374 -10Z" />
<glyph unicode="L" glyph-name="L" horiz-adv-x="360" d="M330 -10H70V910H170V90H330V-10Z" />
<glyph unicode="M" glyph-name="M" horiz-adv-x="580" d="M510 -10H410V341L338 -10H242L170 341V-10H70V910H168L290 260L412 910H510V-10Z" />
<glyph unicode="N" glyph-name="N" horiz-adv-x="440" d="M370 -10H272L170 428V-10H70V910H168L270 472V910H370V-10Z" />
<glyph unicode="O" glyph-name="O" horiz-adv-x="440" d="M370 140Q370 78 326 34T220 -10Q158 -10 114 34T70 140V760Q70 822 114 866T220 910Q282 910 326 866T370 760V140ZM270 140V760Q270 781 256 795T220 810Q199 810 185 796T170 760V140Q170 119 184 105T220
90Q241 90 255 104T270 140Z" />
<glyph unicode="P" glyph-name="P" horiz-adv-x="400" d="M370 550Q370 488 326 444T220 400H170V-10H70V910H220Q282 910 326 866T370 760V550ZM270 550V760Q270 781 256 795T220 810H170V500H220Q241 500 255 514T270 550Z" />
<glyph unicode="Q" glyph-name="Q" horiz-adv-x="420" d="M390 -10H220Q158 -10 114 34T70 140V760Q70 822 114 866T220 910Q282 910 326 866T370 760V140Q370 114 361 90H390V-10ZM270 140V760Q270 781 256 795T220 810Q199 810 185 796T170 760V140Q170 119
184 105T220 90Q241 90 255 104T270 140Z" />
<glyph unicode="R" glyph-name="R" horiz-adv-x="440" d="M370 -10H270V350Q270 371 256 385T220 400H170V-10H70V910H220Q282 910 326 866T370 760V550Q370 493 332 450Q370 407 370 350V-10ZM270 550V760Q270 781 256 795T220 810H170V500H220Q241 500 255 514T270
550Z" />
<glyph unicode="S" glyph-name="S" horiz-adv-x="440" d="M370 140Q370 78 326 34T220 -10Q158 -10 114 34T70 140V210H170V140Q170 119 184 105T220 90Q241 90 255 104T270 140V250Q270 333 218 382Q170 422 122 462Q70 519 70 620V760Q70 822 114 866T220 910Q282
910 326 866T370 760V690H270V760Q270 781 256 795T220 810Q199 810 185 796T170 760V650Q170 567 222 518Q270 478 318 438Q370 381 370 280V140Z" />
<glyph unicode="T" glyph-name="T" horiz-adv-x="310" d="M300 810H210V-10H110V810H10V910H300V810Z" />
<glyph unicode="U" glyph-name="U" horiz-adv-x="440" d="M370 140Q370 78 326 34T220 -10Q158 -10 114 34T70 140V910H170V140Q170 119 184 105T220 90Q241 90 255 104T270 140V910H370V140Z" />
<glyph unicode="V" glyph-name="V" horiz-adv-x="379" d="M370 910L244 -10H135L9 910H111L190 371L268 910H370Z" />
<glyph unicode="W" glyph-name="W" horiz-adv-x="626" d="M617 910L491 -10H382L313 493L244 -10H135L9 910H111L190 371L268 910H358L437 371L515 910H617Z" />
<glyph unicode="X" glyph-name="X" horiz-adv-x="380" d="M373 -10H262L190 282L118 -10H7L135 450L7 910H118L190 618L262 910H373L245 450L373 -10Z" />
<glyph unicode="Y" glyph-name="Y" horiz-adv-x="380" d="M373 910L240 444V-10H140V444L7 910H118L190 618L262 910H373Z" />
<glyph unicode="Z" glyph-name="Z" horiz-adv-x="440" d="M372 910L194 90H370V-10H68L246 810H70V910H372Z" />
<glyph unicode="[" glyph-name="bracketleft" horiz-adv-x="340" d="M270 -10H70V910H270V810H170V90H270V-10Z" />
<glyph unicode="\" glyph-name="backslash" horiz-adv-x="235" d="M247 6L148 -12L-12 894L87 912L247 6Z" />
<glyph unicode="]" glyph-name="bracketright" horiz-adv-x="340" d="M270 -10H70V90H170V810H70V910H270V-10Z" />
<glyph unicode="a" glyph-name="a" horiz-adv-x="379" d="M371 -10H269L239 160H140L110 -10H8L136 710H243L371 -10ZM221 260L190 440L158 260H221Z" />
<glyph unicode="b" glyph-name="b" horiz-adv-x="440" d="M370 140Q370 78 326 34T220 -10H70V710H210Q272 710 316 666T360 560V450Q360 397 326 356Q370 312 370 250V140ZM260 450V560Q260 581 246 595T210 610H170V400H210Q231 400 245 414T260 450ZM270 140V250Q270
271 256 285T220 300H170V90H220Q241 90 255 104T270 140Z" />
<glyph unicode="c" glyph-name="c" horiz-adv-x="440" d="M370 140Q370 78 326 34T220 -10Q158 -10 114 34T70 140V560Q70 622 114 666T220 710Q282 710 326 666T370 560V490H270V560Q270 581 256 595T220 610Q199 610 185 596T170 560V140Q170 119 184 105T220
90Q241 90 255 104T270 140V210H370V140Z" />
<glyph unicode="d" glyph-name="d" horiz-adv-x="440" d="M370 140Q370 78 326 34T220 -10H70V710H220Q282 710 326 666T370 560V140ZM270 140V560Q270 581 256 595T220 610H170V90H220Q241 90 255 104T270 140Z" />
<glyph unicode="e" glyph-name="e" horiz-adv-x="400" d="M330 -10H70V710H330V610H170V400H330V300H170V90H330V-10Z" />
<glyph unicode="f" glyph-name="f" horiz-adv-x="360" d="M330 300H170V-10H70V710H330V610H170V400H330V300Z" />
<glyph unicode="g" glyph-name="g" horiz-adv-x="440" d="M370 -10H270V-1Q246 -10 220 -10Q158 -10 114 34T70 140V560Q70 622 114 666T220 710Q282 710 326 666T370 560V490H270V560Q270 581 256 595T220 610Q199 610 185 596T170 560V140Q170 119 184 105T220
90Q241 90 255 104T270 140V270H210V370H370V-10Z" />
<glyph unicode="h" glyph-name="h" horiz-adv-x="440" d="M370 -10H270V300H170V-10H70V710H170V400H270V710H370V-10Z" />
<glyph unicode="i" glyph-name="i" horiz-adv-x="240" d="M170 -10H70V710H170V-10Z" />
<glyph unicode="j" glyph-name="j" horiz-adv-x="400" d="M330 140Q330 78 286 34T180 -10Q118 -10 74 34T30 140V190H130V140Q130 119 144 105T180 90Q201 90 215 104T230 140V710H330V140Z" />
<glyph unicode="k" glyph-name="k" horiz-adv-x="440" d="M375 -10H263L170 223V-10H70V710H170V477L263 710H375L231 350L375 -10Z" />
<glyph unicode="l" glyph-name="l" horiz-adv-x="360" d="M330 -10H70V710H170V90H330V-10Z" />
<glyph unicode="m" glyph-name="m" horiz-adv-x="580" d="M510 -10H410V271L338 -10H242L170 271V-10H70V710H178L290 248L402 710H510V-10Z" />
<glyph unicode="n" glyph-name="n" horiz-adv-x="440" d="M370 -10H262L170 330V-10H70V710H178L270 370V710H370V-10Z" />
<glyph unicode="o" glyph-name="o" horiz-adv-x="440" d="M370 140Q370 78 326 34T220 -10Q158 -10 114 34T70 140V560Q70 622 114 666T220 710Q282 710 326 666T370 560V140ZM270 140V560Q270 581 256 595T220 610Q199 610 185 596T170 560V140Q170 119 184 105T220
90Q241 90 255 104T270 140Z" />
<glyph unicode="p" glyph-name="p" horiz-adv-x="400" d="M370 450Q370 388 326 344T220 300H170V-10H70V710H220Q282 710 326 666T370 560V450ZM270 450V560Q270 581 256 595T220 610H170V400H220Q241 400 255 414T270 450Z" />
<glyph unicode="q" glyph-name="q" horiz-adv-x="420" d="M390 -10H220Q158 -10 114 34T70 140V560Q70 622 114 666T220 710Q282 710 326 666T370 560V140Q370 114 361 90H390V-10ZM270 140V560Q270 581 256 595T220 610Q199 610 185 596T170 560V140Q170 119
184 105T220 90Q241 90 255 104T270 140Z" />
<glyph unicode="r" glyph-name="r" horiz-adv-x="440" d="M370 -10H270V250Q270 271 256 285T220 300H170V-10H70V710H220Q282 710 326 666T370 560V450Q370 393 332 350Q370 307 370 250V-10ZM270 450V560Q270 581 256 595T220 610H170V400H220Q241 400 255 414T270
450Z" />
<glyph unicode="s" glyph-name="s" horiz-adv-x="440" d="M370 140Q370 78 326 34T220 -10Q158 -10 114 34T70 140V210H170V140Q170 119 184 105T220 90Q241 90 255 104T270 140V200Q270 263 218 294Q170 322 122 349Q70 393 70 490V560Q70 622 114 666T220 710Q282
710 326 666T370 560V490H270V560Q270 581 256 595T220 610Q199 610 185 596T170 560V500Q170 437 222 405Q270 378 318 351Q370 307 370 210V140Z" />
<glyph unicode="t" glyph-name="t" horiz-adv-x="430" d="M360 610H270V-10H170V610H70V710H360V610Z" />
<glyph unicode="u" glyph-name="u" horiz-adv-x="440" d="M370 140Q370 78 326 34T220 -10Q158 -10 114 34T70 140V710H170V140Q170 119 184 105T220 90Q241 90 255 104T270 140V710H370V140Z" />
<glyph unicode="v" glyph-name="v" horiz-adv-x="379" d="M371 710L243 -10H136L8 710H110L190 260L269 710H371Z" />
<glyph unicode="w" glyph-name="w" horiz-adv-x="604" d="M596 710L469 -10H365L370 4L302 382L233 -10H129L134 4L8 710H110L184 290L259 710H346L420 290L495 710H596Z" />
<glyph unicode="x" glyph-name="x" horiz-adv-x="380" d="M374 -10H263L190 194L117 -10H6L134 350L6 710H117L190 506L263 710H374L246 350L374 -10Z" />
<glyph unicode="y" glyph-name="y" horiz-adv-x="380" d="M374 710L240 343V-10H140V343L6 710H117L190 506L263 710H374Z" />
<glyph unicode="z" glyph-name="z" horiz-adv-x="440" d="M373 710L205 90H370V-10H67L235 610H70V710H373Z" />
<glyph unicode="{" glyph-name="braceleft" horiz-adv-x="390" d="M320 -10H210Q173 -10 147 16T120 80V375Q120 415 70 415V485Q120 485 120 525V820Q120 857 146 883T210 910H320V810H220V500Q220 468 193 450Q220 432 220 400V90H320V-10Z" />
<glyph unicode="|" glyph-name="bar" horiz-adv-x="240" d="M170 -10H70V910H170V-10Z" />
<glyph unicode="}" glyph-name="braceright" horiz-adv-x="390" d="M320 415Q270 415 270 375V80Q270 43 244 17T180 -10H70V90H170V400Q170 432 197 450Q170 468 170 500V810H70V910H180Q217 910 243 884T270 820V525Q270 485 320 485V415Z" />
</font>
</defs>
</svg>
